<svg width="120" height="120" viewBox="0 0 120 120" fill="none" xmlns="http://www.w3.org/2000/svg">
<path d="M65.8033 22.0352C62.2331 19.8854 57.7669 19.8854 54.1967 22.0352L51.6152 23.5897C45.3515 27.3614 38.3196 29.6758 31.0402 30.3616L29.4138 30.5149C26.2033 30.8173 23.75 33.5126 23.75 36.7373V44.9568C23.75 58.8499 29.3904 72.1477 39.3792 81.804L55.656 97.5391C58.0785 99.881 61.9215 99.881 64.344 97.5391L80.6208 81.804C90.6096 72.1477 96.25 58.8499 96.25 44.9567V36.7373C96.25 33.5126 93.7967 30.8173 90.5862 30.5149L88.9598 30.3616C81.6804 29.6758 74.6485 27.3614 68.3848 23.5897L65.8033 22.0352Z" fill="url(#paint0_linear_989_924)"/>
<g clip-path="url(#clip0_989_924)">
<path d="M65.2752 65.9703C72.9202 59.182 78.8435 50.2637 75.3702 46.352C74.2685 45.112 72.7302 44.537 71.0785 44.7137C69.6919 44.8653 68.2669 45.5503 66.8302 46.7003C64.5718 45.5303 62.051 44.9592 59.5089 45.0414C56.9667 45.1237 54.4882 45.8567 52.3102 47.1703C50.617 48.1728 49.1398 49.5015 47.9642 51.0794C46.7886 52.6572 45.938 54.4528 45.4619 56.362C44.7197 59.3028 44.8977 62.4005 45.9719 65.237C44.1969 67.242 42.5485 71.3653 44.6002 73.6753C45.4619 74.6437 46.6952 75.077 48.1785 75.077C52.6902 75.077 59.5252 71.0787 65.2752 65.9703ZM71.4402 48.0253C72.0369 47.9687 72.4935 48.132 72.8752 48.5637C73.2602 48.9987 73.1569 50.1403 72.4552 51.7787C71.7014 50.6315 70.7947 49.5925 69.7602 48.6903C70.4785 48.2537 71.0535 48.0687 71.4402 48.0253ZM47.7219 68.5303C48.463 69.6052 49.3415 70.5785 50.3352 71.4253C48.6269 71.9303 47.4785 71.897 47.0935 71.4603C46.7319 71.0553 47.0969 69.6787 47.7219 68.5303ZM74.9052 58.7487C72.8802 61.7437 70.0619 64.867 66.9419 67.637C63.7185 70.502 60.1652 72.9837 56.8585 74.6403C57.8846 74.8662 58.9313 74.9846 59.9819 74.9937C62.6924 74.9907 65.3513 74.2523 67.6752 72.857C70.0893 71.4278 72.0495 69.3443 73.329 66.8476C74.6084 64.3509 75.1549 61.543 74.9052 58.7487Z" fill="black"/>
<path d="M76.3185 60.8921L75.5378 59.9805L75.2194 59.6088L72.6022 56.5528L70.3317 57.4641L69.3397 57.8623L66.1576 59.1396L68.8808 56.8036L69.1059 56.6105L69.5464 56.2327L71.4285 54.6183L69.6403 50.1735L69.3307 49.404L68.8304 48.1606L69.3737 48.7949L70.4226 50.0196L73.3582 53.4474L75.6287 52.536L76.6207 52.1379L79.8028 50.8606L77.0796 53.1965L76.414 53.7675L74.5319 55.3819L76.3201 59.8267L76.6297 60.5962L77.13 61.8396L76.5867 61.2053L76.3185 60.8921Z" fill="white"/>
<path d="M47.7161 51.555C46.0069 53.9364 45.1593 56.1856 45.0642 59.202C44.9691 62.2184 45.7521 65.2066 47.3059 67.7572C48.8596 70.3078 51.2813 72.4878 53.9169 73.6416L56.161 72.5786L58.6413 71.1023L61.0035 69.3897L63.3066 67.618C63.3066 67.618 59.8224 67.6771 54.3303 63.6613C50.7472 61.0415 47.7161 51.555 47.7161 51.555Z" fill="white" fill-opacity="0.2"/>
<path d="M71.3704 69.7748C71.1062 69.7937 70.8394 69.8033 70.5704 69.8033C68.8415 69.8033 67.2054 69.406 65.7484 68.6978C62.8414 71.1425 59.7299 73.2481 56.8105 74.7107C57.8366 74.9366 58.8833 75.055 59.9339 75.0641C62.6444 75.0611 65.3034 74.3227 67.6272 72.9274C69.0474 72.0866 70.3105 71.0194 71.3704 69.7748Z" fill="white" fill-opacity="0.2"/>
</g>
<defs>
<linearGradient id="paint0_linear_989_924" x1="60" y1="20.4229" x2="60" y2="99.2955" gradientUnits="userSpaceOnUse">
<stop stop-color="#4FF959"/>
<stop offset="1" stop-color="#FAFFB5"/>
</linearGradient>
<clipPath id="clip0_989_924">
<rect width="40" height="40" fill="white" transform="translate(40 40)"/>
</clipPath>
</defs>
</svg>
